<?xml version="1.0" encoding="UTF-8"?>
<svg width="229.34" height="64.999" version="1.1" viewBox="122.83 113.63 229.34 64.999" xmlns="http://www.w3.org/2000/svg" xmlns:cc="http://creativecommons.org/ns#" xmlns:dc="http://purl.org/dc/elements/1.1/" xmlns:rdf="http://www.w3.org/1999/02/22-rdf-syntax-ns#">
 <metadata>
  <rdf:RDF>
   <cc:Work rdf:about="">
    <dc:format>image/svg+xml</dc:format>
    <dc:type rdf:resource="http://purl.org/dc/dcmitype/StillImage"/>
    <dc:title/>
   </cc:Work>
  </rdf:RDF>
 </metadata>
 <rect x="122.83" y="113.63" width="229.34" height="64.999" fill="transparent"/>
 <g transform="translate(194.55 125.52)" fill="#fff">
  <path d="m-3.8147e-8 4.1199e-7h18.848v5.32h-6.802v22.648h-5.51v-22.648h-6.536v-5.32zm27.778 23.902q1.596 0 3.306-1.102l2.356 3.952q-1.368 0.76-2.888 1.216-1.52 0.456-2.888 0.456-2.964 0-5.111-1.121-2.147-1.121-3.249-3.154-1.102-2.033-1.102-4.655 0-2.432 1.273-4.484 1.273-2.052 3.477-3.249 2.204-1.197 4.826-1.197 3.572 0 5.871 2.09 2.299 2.09 2.983 5.966l-12.16 3.876q1.216 1.406 3.306 1.406zm-0.418-9.196q-1.786 0-2.85 1.216t-1.064 3.268v0.342l7.296-2.47q-0.798-2.356-3.382-2.356zm29.45 13.262h-6.422l-3.838-4.978-3.496 4.978h-5.282l6.156-8.36-6.346-8.246h6.536l3.648 4.788 2.85-4.788h5.282l-5.7 7.942 6.612 8.664zm4.674-23.902h5.32v7.22h4.028v4.142h-4.028v12.54h-5.32v-12.54h-2.584v-4.142h2.584v-7.22zm28.69 9.158q2.204 1.026 3.439 2.679 1.235 1.653 1.235 3.819 0 4.256-2.793 6.251-2.793 1.995-6.973 1.995h-9.31v-27.968h8.208q4.446 0 6.992 1.805 2.546 1.805 2.546 5.225 0 2.09-0.874 3.667-0.874 1.577-2.47 2.527zm-8.892-7.904v6.118h3.344q1.52 0 2.356-0.931 0.836-0.931 0.836-2.299 0-1.406-0.95-2.147-0.95-0.741-2.622-0.741h-2.964zm3.534 17.518q1.938 0 3.135-0.779t1.197-2.337q0-2.964-4.712-2.964h-3.154v6.08h3.534zm19.874-7.676q0.684-1.33 1.881-2.394 1.197-1.064 2.451-1.653 1.254-0.589 1.976-0.589l-0.266 5.32q-0.228-0.038-0.646-0.038-1.596 0-2.812 0.836-1.216 0.836-1.862 2.147t-0.646 2.679v6.498h-5.282v-16.606h4.788l0.418 3.8zm17.898 8.74q1.596 0 3.306-1.102l2.356 3.952q-1.368 0.76-2.888 1.216-1.52 0.456-2.888 0.456-2.964 0-5.111-1.121-2.147-1.121-3.249-3.154-1.102-2.033-1.102-4.655 0-2.432 1.273-4.484 1.273-2.052 3.477-3.249 2.204-1.197 4.826-1.197 3.572 0 5.871 2.09 2.299 2.09 2.983 5.966l-12.16 3.876q1.216 1.406 3.306 1.406zm-0.418-9.196q-1.786 0-2.85 1.216-1.064 1.216-1.064 3.268v0.342l7.296-2.47q-0.798-2.356-3.382-2.356zm30.286-3.344h5.168l-7.486 17.594-5.32-11.02-4.864 11.02-7.562-17.594h5.168l3.078 7.03 2.318-5.13-0.874-1.9h4.522l3.116 7.334 2.736-7.334z" fill="#fff"/>
 </g>
 <g transform="translate(64.545 62)">
  <path d="m78.769 95.25h-6.556c-2.035 0-3.685-1.651-3.685-3.685v-25.878c0-2.034 1.65-3.685 3.685-3.685h26.147c2.035 0 3.685 1.651 3.685 3.685v6.686h-19.591c-2.036 0-3.685 1.649-3.685 3.684v19.193z" fill="#ff446c"/>
  <path d="M68.528,84.879h-6.557c-2.035,0-3.685-1.649-3.685-3.685v-25.877c0-2.036,1.65-3.685,3.685-3.685h26.147c2.035,0,3.685,1.649,3.685,3.685v6.683h-4.548v-5.82h-24.421v24.15h5.693v4.548Zm22.45-.049l5.717,5.426,15.592-12.153v-2.048c0-2.034-1.651-3.684-3.685-3.684h-26.147c-2.036,0-3.685,1.649-3.685,3.684v25.878c0,2.034,1.649,3.685,3.685,3.685h6.774l12.487,10.609c.366,.269,.8,.404,1.235,.404,.394,0,.789-.111,1.134-.335,.728-.469,1.09-1.341,.909-2.19l-1.045-8.488h4.654c2.034,0,3.685-1.651,3.685-3.685v-17.102l-15.933,12.418-9.029-8.57c-1.063-1.008-1.107-2.689-.099-3.75,1.01-1.063,2.689-1.107,3.752-.099Z" fill="#fff"/>
 </g>
</svg>
