<svg id="SvgjsSvg1001" width="229.33799358367924" height="64.99899291992188" xmlns="http://www.w3.org/2000/svg" version="1.1" xmlns:xlink="http://www.w3.org/1999/xlink" xmlns:svgjs="http://svgjs.com/svgjs" viewBox="122.83100318908691 113.63199996948242 229.33799358367924 64.99899291992188"><defs id="SvgjsDefs1002"></defs><rect id="SvgjsRect1008" width="229.33799358367924" height="64.99899291992188" fill="transparent" x="122.83100318908691" y="113.63199996948242"></rect><g id="SvgjsG1013" transform="matrix(1,0,0,1,194.5450038909912,125.52200317382812)"><path id="SvgjsPath1014" d="M-3.814697269177714e-8 4.119873047159217e-7L18.847999961853027 4.119873047159217e-7L18.847999961853027 5.320000411987305L12.045999961853028 5.320000411987305L12.045999961853028 27.968000411987305L6.535999961853028 27.968000411987305L6.535999961853028 5.320000411987305L-3.814697269177714e-8 5.320000411987305L-3.814697269177714e-8 4.119873047159217e-7ZM27.777999961853027 23.902000411987306Q29.373999961853027 23.902000411987306 31.083999961853024 22.800000411987305L33.439999961853026 26.752000411987304Q32.071999961853024 27.512000411987305 30.551999961853028 27.968000411987305Q29.03199996185303 28.424000411987304 27.663999961853026 28.424000411987304Q24.699999961853027 28.424000411987304 22.55299996185303 27.303000411987306Q20.405999961853027 26.182000411987303 19.303999961853027 24.149000411987306Q18.201999961853026 22.116000411987304 18.201999961853026 19.494000411987304Q18.201999961853026 17.062000411987306 19.474999961853026 15.010000411987305Q20.747999961853026 12.958000411987305 22.951999961853026 11.761000411987304Q25.155999961853027 10.564000411987305 27.777999961853027 10.564000411987305Q31.34999996185303 10.564000411987305 33.64899996185303 12.654000411987305Q35.94799996185303 14.744000411987304 36.631999961853026 18.620000411987306L24.471999961853026 22.496000411987303Q25.687999961853027 23.902000411987306 27.777999961853027 23.902000411987306ZM27.359999961853028 14.706000411987304Q25.573999961853026 14.706000411987304 24.509999961853026 15.922000411987305Q23.445999961853026 17.138000411987306 23.445999961853026 19.190000411987306L23.445999961853026 19.532000411987305L30.741999961853026 17.062000411987306Q29.943999961853027 14.706000411987304 27.359999961853028 14.706000411987304ZM56.80999996185303 27.968000411987305L50.387999961853026 27.968000411987305L46.549999961853025 22.990000411987303L43.05399996185303 27.968000411987305L37.77199996185303 27.968000411987305L43.927999961853025 19.608000411987305L37.58199996185303 11.362000411987303L44.11799996185303 11.362000411987303L47.765999961853026 16.150000411987307L50.61599996185303 11.362000411987303L55.897999961853024 11.362000411987303L50.19799996185303 19.304000411987303L56.80999996185303 27.968000411987305ZM61.48399996185303 4.066000411987304L66.80399996185302 4.066000411987304L66.80399996185302 11.286000411987306L70.83199996185303 11.286000411987306L70.83199996185303 15.428000411987306L66.80399996185302 15.428000411987306L66.80399996185302 27.968000411987305L61.48399996185303 27.968000411987305L61.48399996185303 15.428000411987306L58.89999996185303 15.428000411987306L58.89999996185303 11.286000411987306L61.48399996185303 11.286000411987306L61.48399996185303 4.066000411987304ZM90.17399996185303 13.224000411987305Q92.37799996185302 14.250000411987305 93.61299996185302 15.903000411987305Q94.84799996185303 17.556000411987306 94.84799996185303 19.722000411987302Q94.84799996185303 23.978000411987303 92.05499996185303 25.973000411987304Q89.26199996185302 27.968000411987305 85.08199996185303 27.968000411987305L75.77199996185303 27.968000411987305L75.77199996185303 4.119873047159217e-7L83.97999996185303 4.119873047159217e-7Q88.42599996185302 4.119873047159217e-7 90.97199996185303 1.8050004119873044Q93.51799996185302 3.610000411987304 93.51799996185302 7.030000411987306Q93.51799996185302 9.120000411987306 92.64399996185303 10.697000411987304Q91.76999996185303 12.274000411987304 90.17399996185303 13.224000411987305ZM81.28199996185303 5.320000411987305L81.28199996185303 11.438000411987304L84.62599996185303 11.438000411987304Q86.14599996185302 11.438000411987304 86.98199996185302 10.507000411987306Q87.81799996185303 9.576000411987305 87.81799996185303 8.208000411987303Q87.81799996185303 6.802000411987304 86.86799996185303 6.061000411987305Q85.91799996185303 5.320000411987305 84.24599996185303 5.320000411987305L81.28199996185303 5.320000411987305ZM84.81599996185302 22.838000411987306Q86.75399996185303 22.838000411987306 87.95099996185303 22.059000411987306Q89.14799996185303 21.280000411987306 89.14799996185303 19.722000411987302Q89.14799996185303 16.758000411987304 84.43599996185303 16.758000411987304L81.28199996185303 16.758000411987304L81.28199996185303 22.838000411987306L84.81599996185302 22.838000411987306ZM104.68999996185303 15.162000411987306Q105.37399996185303 13.832000411987305 106.57099996185303 12.768000411987305Q107.76799996185302 11.704000411987305 109.02199996185303 11.115000411987303Q110.27599996185303 10.526000411987305 110.99799996185303 10.526000411987305L110.73199996185302 15.846000411987305Q110.50399996185303 15.808000411987305 110.08599996185303 15.808000411987305Q108.48999996185303 15.808000411987305 107.27399996185302 16.644000411987307Q106.05799996185303 17.480000411987305 105.41199996185303 18.791000411987305Q104.76599996185303 20.102000411987305 104.76599996185303 21.470000411987304L104.76599996185303 27.968000411987305L99.48399996185303 27.968000411987305L99.48399996185303 11.362000411987303L104.27199996185303 11.362000411987303L104.68999996185303 15.162000411987306ZM122.58799996185303 23.902000411987306Q124.18399996185303 23.902000411987306 125.89399996185303 22.800000411987305L128.24999996185304 26.752000411987304Q126.88199996185304 27.512000411987305 125.36199996185303 27.968000411987305Q123.84199996185303 28.424000411987304 122.47399996185302 28.424000411987304Q119.50999996185303 28.424000411987304 117.36299996185302 27.303000411987306Q115.21599996185303 26.182000411987303 114.11399996185303 24.149000411987306Q113.01199996185302 22.116000411987304 113.01199996185302 19.494000411987304Q113.01199996185302 17.062000411987306 114.28499996185303 15.010000411987305Q115.55799996185303 12.958000411987305 117.76199996185302 11.761000411987304Q119.96599996185303 10.564000411987305 122.58799996185303 10.564000411987305Q126.15999996185303 10.564000411987305 128.45899996185304 12.654000411987305Q130.75799996185302 14.744000411987304 131.441999961853 18.620000411987306L119.28199996185303 22.496000411987303Q120.49799996185303 23.902000411987306 122.58799996185303 23.902000411987306ZM122.16999996185302 14.706000411987304Q120.38399996185302 14.706000411987304 119.31999996185303 15.922000411987305Q118.25599996185302 17.138000411987306 118.25599996185302 19.190000411987306L118.25599996185302 19.532000411987305L125.55199996185303 17.062000411987306Q124.75399996185303 14.706000411987304 122.16999996185302 14.706000411987304ZM152.45599996185302 11.362000411987303L157.62399996185303 11.362000411987303L150.13799996185304 28.956000411987304L144.81799996185302 17.936000411987305L139.95399996185301 28.956000411987304L132.39199996185303 11.362000411987303L137.55999996185304 11.362000411987303L140.63799996185304 18.392000411987304L142.95599996185302 13.262000411987305L142.08199996185303 11.362000411987303L146.60399996185302 11.362000411987303L149.71999996185303 18.696000411987306L152.45599996185302 11.362000411987303Z " fill="#26005b"></path></g><g id="SvgjsG1015" transform="matrix(1,0,0,1,64.54500389099121,62)"><path id="color_2" d="M78.769,95.25h-6.556c-2.035,0-3.685-1.651-3.685-3.685v-25.878c0-2.034,1.65-3.685,3.685-3.685h26.147c2.035,0,3.685,1.651,3.685,3.685v6.686h-19.591c-2.036,0-3.685,1.649-3.685,3.684v19.193Z" fill="#ff446c"></path><path id="color_1" d="M68.528,84.879h-6.557c-2.035,0-3.685-1.649-3.685-3.685v-25.877c0-2.036,1.65-3.685,3.685-3.685h26.147c2.035,0,3.685,1.649,3.685,3.685v6.683h-4.548v-5.82h-24.421v24.15h5.693v4.548Zm22.45-.049l5.717,5.426,15.592-12.153v-2.048c0-2.034-1.651-3.684-3.685-3.684h-26.147c-2.036,0-3.685,1.649-3.685,3.684v25.878c0,2.034,1.649,3.685,3.685,3.685h6.774l12.487,10.609c.366,.269,.8,.404,1.235,.404,.394,0,.789-.111,1.134-.335,.728-.469,1.09-1.341,.909-2.19l-1.045-8.488h4.654c2.034,0,3.685-1.651,3.685-3.685v-17.102l-15.933,12.418-9.029-8.57c-1.063-1.008-1.107-2.689-.099-3.75,1.01-1.063,2.689-1.107,3.752-.099Z" fill="#26005b"></path></g></svg>